<svg xmlns="http://www.w3.org/2000/svg" viewBox="0 0 16 16"><path d="M6.992 6.8a5.214 5.214 0 0 0-.212-.663 4.722 4.722 0 0 0-.88-1.362.212.212 0 0 1 0-.3l4.366-4.35a.426.426 0 0 1 .614.011 11.516 11.516 0 0 1 2.168 3.354 12.806 12.806 0 0 1 .541 1.588l-3.413 2.575z" fill="#28a8ea"/><path d="M15.646 4.989a.427.427 0 0 0-.524-.3L6.991 6.8a4.523 4.523 0 0 1 0 2.4L10 11l3.589-.078 1.531.4a.427.427 0 0 0 .525-.3 12.994 12.994 0 0 0 0-6.029z" fill="#0f78d4"/><path d="M6.992 9.2a5.265 5.265 0 0 1-.212.663 4.736 4.736 0 0 1-.88 1.362.211.211 0 0 0 0 .3l4.359 4.352a.425.425 0 0 0 .613-.011 11.5 11.5 0 0 0 2.169-3.354 12.8 12.8 0 0 0 .54-1.588z" fill="#0358a7"/><path d="M11 12V5a1 1 0 0 0-1-1H6.383l-.483.492a.288.288 0 0 0-.033.043.212.212 0 0 0 .03.252 4.758 4.758 0 0 1 .891 1.379 5.161 5.161 0 0 1 .208.63 4.546 4.546 0 0 1 0 2.4 5.228 5.228 0 0 1-.212.664 4.753 4.753 0 0 1-.884 1.365.214.214 0 0 0 0 .3L8.387 14H9a2 2 0 0 0 2-2z" opacity=".5"/><rect y="3" width="10" height="10" rx="1" fill="#0078d4"/><path d="M4.534 7.561a1.954 1.954 0 0 1 .134.36h.013a1.675 1.675 0 0 1 .13-.352l1.213-2.286A.534.534 0 0 1 6.5 5a.533.533 0 0 1 .463.8L5.279 8.722a.538.538 0 0 0-.071.266v1.478a.534.534 0 0 1-.533.534h-.109a.534.534 0 0 1-.534-.534V9.005a.535.535 0 0 0-.067-.26L2.317 5.794A.533.533 0 0 1 2.782 5h.1a.531.531 0 0 1 .474.289z" fill="#fff"/></svg>